#!OML:ASF Z:\Project 1\Capture day 1\Session 1\Male1.ASF
:FULLY-SPECIFIED
:DEGREES
1167
root 13.0863 16.5552 -3.29286 -168.012 -16.4889 176.653
lowerback -5.76663 -3.14777 -0.23238
upperback 1.3589 -4.28166 1.73894
thorax 4.78992 -2.16245 1.50551
lowerneck -17.5654 -1.33259 1.89413
upperneck 11.7948 -3.24171 5.13846
head 6.53726 -1.09441 0.999949
rclavicle 1.37161e-014 1.59028e-014
rhumerus 80.8009 2.00733 -58.2349
rradius 23.8807
rwrist 54.4124
rhand -46.8294 63.8366
rfingers 7.12502
rthumb -19.5433 34.7988
lclavicle 1.37161e-014 1.59028e-014
lhumerus 85.251 -6.68628 65.0057
lradius 15.4596
lwrist -42.76
lhand -37.0607 70.9995
lfingers 7.12502
lthumb -10.1332 619.265
rfemur -15.4495 -8.2982 22.6517
rtibia 19.626
rfoot -16.4856 -10.4828
rtoes 18.3115
lfemur -0.0394553 -0.628909 -11.9298
ltibia 29.0663
lfoot 22.5987 11.3895
ltoes 54.1976
1168
root 13.0884 16.5551 -3.28975 -168.014 -16.4844 176.618
lowerback -5.83512 -3.125 -0.266764
upperback 1.38064 -4.24921 1.73462
thorax 4.85252 -2.1472 1.51889
lowerneck -17.4932 -1.3726 2.07224
upperneck 11.5 -3.28949 4.97947
head 6.42499 -1.13131 0.915736
rclavicle -4.57205e-015 -1.74931e-014
rhumerus 80.7719 2.02043 -58.4317
rradius 23.843
rwrist 54.7063
rhand -46.6194 63.7493
rfingers 7.12502
rthumb -19.3413 34.6911
lclavicle -4.57205e-015 -1.74931e-014
lhumerus 85.2686 -6.7943 65.2393
lradius 15.388
lwrist -42.9455
lhand -37.4824 71.0467
lfingers 7.12502
lthumb -10.54 619.238
rfemur -15.4415 -8.26444 22.6027
rtibia 19.5956
rfoot -16.4503 -10.4194
rtoes 19.0485
lfemur -0.175684 -0.801077 -12.0115
ltibia 29.3038
lfoot 22.6654 11.4589
ltoes 53.6942
1169
root 13.0904 16.555 -3.28634 -168.091 -16.4587 176.589
lowerback -5.81674 -3.12431 -0.281014
upperback 1.42735 -4.24632 1.70773
thorax 4.88971 -2.14583 1.49891
lowerneck -17.7248 -1.37083 1.69488
upperneck 11.5833 -3.26373 5.30323
head 6.50212 -1.10324 1.08215
rclavicle 3.18055e-014 1.35174e-014
rhumerus 80.7976 2.05525 -58.3824
rradius 23.7855
rwrist 54.5598
rhand -46.4887 63.6758
rfingers 7.12502
rthumb -19.2157 34.6051
lclavicle 3.18055e-014 1.35174e-014
lhumerus 85.1777 -6.86552 66.6285
lradius 15.1379
lwrist -44.349
lhand -37.3489 71.3028
lfingers 7.12502
lthumb -10.4112 618.975
rfemur -15.3259 -8.21342 22.5451
rtibia 19.5147
rfoot -16.3713 -10.4095
rtoes 19.1693
lfemur -0.259508 -0.831803 -12.0566
ltibia 29.5832
lfoot 22.6422 11.5958
ltoes 53.6722
1170
root 13.0912 16.5537 -3.28268 -168.241 -16.4506 176.681
lowerback -5.7446 -3.09168 -0.149514
upperback 1.4469 -4.21373 1.712
thorax 4.85885 -2.12653 1.43701
lowerneck -17.835 -1.37246 1.63367
upperneck 11.6532 -3.26526 5.34236
head 6.54475 -1.09953 1.10401
rclavicle -6.69904e-014 -6.36111e-015
rhumerus 80.7408 2.03737 -58.4876
rradius 23.7182
rwrist 54.6423
rhand -46.6319 63.4955
rfingers 7.12502
rthumb -19.3534 34.4385
lclavicle -6.69904e-014 -6.36111e-015
lhumerus 85.0342 -7.00235 68.0841
lradius 14.8981
lwrist -45.8678
lhand -37.091 71.6418
lfingers 7.12502
lthumb -10.1624 618.624
rfemur -15.1392 -8.3236 22.6347
rtibia 19.3789
rfoot -16.3053 -10.2801
rtoes 19.2651
lfemur -0.334 -0.827573 -11.9453
ltibia 29.93
lfoot 22.5584 11.6464
ltoes 53.8462
1171
root 13.0926 16.5521 -3.27908 -168.32 -16.5052 176.735
lowerback -5.73327 -3.0304 -0.0438197
upperback 1.43177 -4.14024 1.71662
thorax 4.82713 -2.08735 1.39157
lowerneck -17.765 -1.40296 1.80145
upperneck 11.5525 -3.31367 5.19744
head 6.49602 -1.13105 1.02549
rclavicle -6.55989e-015 2.22639e-014
rhumerus 80.665 1.87412 -60.1175
rradius 23.3861
rwrist 56.3329
rhand -46.9737 63.794
rfingers 7.12502
rthumb -19.682 34.7704
lclavicle -6.55989e-015 2.22639e-014
lhumerus 85.0367 -7.2311 68.3187
lradius 14.8021
lwrist -46.1304
lhand -37.3931 71.3537
lfingers 7.12502
lthumb -10.4539 618.926
rfemur -15.0441 -8.38082 22.6936
rtibia 19.3021
rfoot -16.2734 -10.1787
rtoes 19.7647
lfemur -0.460255 -0.861766 -11.8519
ltibia 30.2154
lfoot 22.7032 11.3691
ltoes 53.8726
1172
root 13.0928 16.542 -3.2741 -168.39 -16.5683 176.77
lowerback -5.74499 -3.00794 0.0335015
upperback 1.45896 -4.11402 1.6717
thorax 4.85241 -2.07115 1.30338
lowerneck -17.8564 -1.33869 1.72077
upperneck 11.5879 -3.2547 5.41195
head 6.52764 -1.08804 1.11322
rclavicle 1.59028e-015 -1.11319e-014
rhumerus 80.2697 1.54732 -57.4165
rradius 24.0493
rwrist 53.501
rhand -47.0952 62.826
rfingers 7.12502
rthumb -19.7988 33.8144
lclavicle 1.59028e-015 -1.11319e-014
lhumerus 85.1322 -7.32812 67.3093
lradius 14.9312
lwrist -45.2528
lhand -37.4453 71.0263
lfingers 7.12502
lthumb -10.5042 619.256
rfemur -15.1036 -9.55345 23.0169
rtibia 19.1974
rfoot -15.2277 -10.7322
rtoes 10.9579
lfemur -0.631797 -0.763811 -11.7575
ltibia 30.5777
lfoot 22.9228 10.8612
ltoes 53.8784
1173
root 13.096 16.5531 -3.27459 -168.487 -16.5644 176.797
lowerback -5.72578 -3.05194 0.0119077
upperback 1.50029 -4.17231 1.6756
thorax 4.88811 -2.10099 1.31328
lowerneck -17.8831 -1.20232 1.93398
upperneck 11.505 -3.09228 5.25145
head 6.49594 -1.01512 1.04464
rclavicle 2.46493e-014 -2.38542e-014
rhumerus 80.4324 1.62646 -58.5804
rradius 23.654
rwrist 54.4453
rhand -47.2701 63.0221
rfingers 7.12502
rthumb -19.967 34.0279
lclavicle 2.46493e-014 -2.38542e-014
lhumerus 85.0736 -7.12476 65.9924
lradius 15.1953
lwrist -44.1079
lhand -37.2186 71.0211
lfingers 7.12502
lthumb -10.2855 619.25
rfemur -14.7665 -8.184 22.6202
rtibia 19.1461
rfoot -16.7707 -9.42755
rtoes 24.6531
lfemur -0.737911 -0.560739 -11.672
ltibia 30.8601
lfoot 23.1432 10.3965
ltoes 53.7554
1174
root 13.0943 16.5428 -3.26709 -168.549 -16.5393 176.767
lowerback -5.6969 -3.06069 -0.0466469
upperback 1.52316 -4.18025 1.68184
thorax 4.90058 -2.10697 1.35237
lowerneck -17.9034 -1.20548 2.03993
upperneck 11.3115 -3.11007 5.22833
head 6.43543 -1.02706 1.01807
rclavicle 3.71727e-014 -2.38542e-015
rhumerus 80.446 1.66229 -58.837
rradius 23.5301
rwrist 54.6105
rhand -47.1774 62.9439
rfingers 7.12502
rthumb -19.8778 33.9404
lclavicle 3.71727e-014 -2.38542e-015
lhumerus 84.9781 -6.99799 64.8788
lradius 15.4194
lwrist -43.1701
lhand -37.0975 71.1328
lfingers 7.12502
lthumb -10.1687 619.133
rfemur -14.9206 -9.83012 23.0049
rtibia 19.0854
rfoot -15.2192 -10.317
rtoes 11.8678
lfemur -0.876076 -0.528815 -11.7061
ltibia 31.168
lfoot 23.3285 10.0521
ltoes 53.2916
1175
root 13.0929 16.5462 -3.2628 -168.65 -16.5147 176.775
lowerback -5.62448 -3.008 -0.0368958
upperback 1.53141 -4.10957 1.66939
thorax 4.86446 -2.07167 1.345
lowerneck -18.1204 -1.25752 2.00501
upperneck 11.3784 -3.21349 5.37289
head 6.49872 -1.06302 1.05805
rclavicle -1.74931e-014 -6.36111e-015
rhumerus 80.2578 1.62036 -58.1362
rradius 23.6539
rwrist 53.9455
rhand -46.9849 62.541
rfingers 7.12502
rthumb -19.6928 33.5185
lclavicle -1.74931e-014 -6.36111e-015
lhumerus 84.9494 -7.12804 64.3621
lradius 15.481
lwrist -42.8289
lhand -37.0189 71.2864
lfingers 7.12502
lthumb -10.0928 618.976
rfemur -14.6641 -9.01161 22.7672
rtibia 19.06
rfoot -15.966 -9.76233
rtoes 19.0544
lfemur -0.89089 -0.619573 -11.7419
ltibia 31.3422
lfoot 23.5034 9.83372
ltoes 53.0241
1176
root 13.0919 16.5448 -3.26094 -168.805 -16.5319 176.916
lowerback -5.537 -2.98182 0.00031436
upperback 1.53308 -4.0833 1.75574
thorax 4.81983 -2.06033 1.42078
lowerneck -18.083 -1.29765 1.68055
upperneck 11.1013 -3.2455 5.79607
head 6.41761 -1.06954 1.24268
rclavicle 4.57205e-015 1.19271e-014
rhumerus 80.0756 1.6997 -56.9811
rradius 23.8758
rwrist 52.8837
rhand -46.6863 62.1244
rfingers 7.12502
rthumb -19.4057 33.0727
lclavicle 4.57205e-015 1.19271e-014
lhumerus 84.9332 -7.21151 64.0795
lradius 15.4921
lwrist -42.5503
lhand -36.8548 71.3652
lfingers 7.12502
lthumb -9.93459 618.889
rfemur -14.6248 -9.8428 23.123
rtibia 18.9317
rfoot -15.064 -10.2453
rtoes 11.5724
lfemur -0.921365 -0.661943 -11.5801
ltibia 31.6067
lfoot 23.5288 9.73605
ltoes 53.3693
1177
root 13.0975 16.5498 -3.2592 -168.896 -16.5871 177.062
lowerback -5.50591 -2.94436 0.0467768
upperback 1.52898 -4.04221 1.83152
thorax 4.7992 -2.04093 1.47902
lowerneck -18.0251 -1.32061 1.43982
upperneck 10.8644 -3.24021 6.0325
head 6.34006 -1.06701 1.35787
rclavicle 8.54774e-015 -3.18055e-014
rhumerus 79.9033 1.72985 -56.3267
rradius 23.9984
rwrist 52.2496
rhand -46.3544 61.8771
rfingers 7.12502
rthumb -19.0865 32.7936
lclavicle 8.54774e-015 -3.18055e-014
lhumerus 84.9613 -7.36181 63.8056
lradius 15.5247
lwrist -42.1694
lhand -36.6635 71.3356
lfingers 7.12502
lthumb -9.75002 618.91
rfemur -14.3922 -8.7019 23.0043
rtibia 18.8932
rfoot -15.9569 -9.76462
rtoes 20.1366
lfemur -0.995148 -0.683888 -11.3382
ltibia 31.7319
lfoot 23.5774 9.896
ltoes 54.2001
1178
root 13.1 16.5464 -3.25324 -168.885 -16.5734 177.042
lowerback -5.51943 -2.89057 0.00152656
upperback 1.50854 -3.96688 1.83737
thorax 4.78681 -2.00485 1.51758
lowerneck -18.1436 -1.34044 1.16135
upperneck 10.8973 -3.22543 6.18249
head 6.3767 -1.05515 1.45242
rclavicle -1.96797e-014 4.77083e-015
rhumerus 79.7604 1.74549 -56.0422
rradius 24.0351
rwrist 51.9176
rhand -46.0671 61.6553
rfingers 7.12502
rthumb -18.8102 32.5448
lclavicle -1.96797e-014 4.77083e-015
lhumerus 84.962 -7.57684 64.093
lradius 15.4493
lwrist -42.3627
lhand -36.6876 71.2965
lfingers 7.12502
lthumb -9.7733 618.95
rfemur -14.5313 -9.58677 23.2358
rtibia 18.8204
rfoot -15.0522 -10.2873
rtoes 12.3136
lfemur -1.1466 -0.711058 -11.3087
ltibia 31.9242
lfoot 23.6234 10.0161
ltoes 55.0827
1179
root 13.1038 16.5564 -3.25113 -168.897 -16.525 176.995
lowerback -5.54802 -2.83969 -0.039619
upperback 1.53622 -3.89419 1.80138
thorax 4.82981 -1.9691 1.50825
lowerneck -18.444 -1.33919 1.64651
upperneck 10.9773 -3.27412 5.68613
head 6.43556 -1.08903 1.2087
rclavicle 4.73108e-014 -1.98785e-014
rhumerus 79.6915 1.7074 -55.9449
rradius 24.0654
rwrist 51.819
rhand -45.8045 61.5458
rfingers 7.12502
rthumb -18.5576 32.411
lclavicle 4.73108e-014 -1.98785e-014
lhumerus 85.0145 -7.71046 64.0815
lradius 15.4167
lwrist -42.408
lhand -36.7813 71.2484
lfingers 7.12502
lthumb -9.86363 619.003
rfemur -14.2768 -8.09316 22.7881
rtibia 18.7818
rfoot -16.4541 -9.2036
rtoes 25.4796
lfemur -1.20778 -0.809007 -11.3521
ltibia 32.0355
lfoot 23.7043 10.0625
ltoes 55.553
1180
root 13.1061 16.5472 -3.24635 -168.956 -16.5235 176.993
lowerback -5.54214 -2.82837 -0.0824019
upperback 1.54109 -3.87485 1.78764
thorax 4.83285 -1.96038 1.51998
lowerneck -18.4629 -1.31562 2.18404
upperneck 10.7971 -3.28087 5.17801
head 6.36172 -1.11521 0.958377
rclavicle -4.47266e-014 -7.15625e-015
rhumerus 79.6185 1.7368 -56.1113
rradius 24.097
rwrist 52.128
rhand -45.7729 61.6071
rfingers 7.12502
rthumb -18.5272 32.4694
lclavicle -4.47266e-014 -7.15625e-015
lhumerus 84.9734 -7.8219 64.1561
lradius 15.3709
lwrist -42.6217
lhand -36.6302 71.0824
lfingers 7.12502
lthumb -9.71791 619.162
rfemur -14.3785 -9.43711 23.1428
rtibia 18.6723
rfoot -15.1226 -10.1095
rtoes 13.9874
lfemur -1.28782 -1.01061 -11.3539
ltibia 32.2724
lfoot 23.5638 10.3045
ltoes 55.7191
1181
root 13.1107 16.5548 -3.24647 -169.028 -16.5771 177.004
lowerback -5.52026 -2.79149 -0.0501524
upperback 1.5085 -3.82264 1.7275
thorax 4.77835 -1.93179 1.44711
lowerneck -18.447 -1.3594 1.68576
upperneck 10.8679 -3.3296 5.79963
head 6.4043 -1.11061 1.23253
rclavicle 5.08889e-014 2.94201e-014
rhumerus 79.4076 1.66673 -56.3866
rradius 24.0951
rwrist 52.4307
rhand -45.8798 61.72
rfingers 7.12502
rthumb -18.63 32.5921
lclavicle 5.08889e-014 2.94201e-014
lhumerus 84.8844 -8.16595 65.4154
lradius 15.0667
lwrist -44.0016
lhand -36.3343 70.8318
lfingers 7.12502
lthumb -9.43242 619.399
rfemur -14.051 -8.03439 22.7873
rtibia 18.5598
rfoot -16.3419 -9.33592
rtoes 25.6968
lfemur -1.34739 -1.16817 -11.3204
ltibia 32.4684
lfoot 23.5681 10.2935
ltoes 55.3892
